<svg width="385" height="100" viewBox="0 0 385 100" fill="none" xmlns="http://www.w3.org/2000/svg">
<path d="M147.145 88.0352L145.241 78.8329H130.563L128.566 88.0352H112.171L127.889 26.4629H148.184L163.901 88.0352H147.133H147.145ZM133.132 66.9391H142.661L137.99 44.7853L133.132 66.9391Z" fill="white"/>
<path d="M204.982 58.6887H189.358V54.2814C189.358 52.8711 188.564 52.1777 186.975 52.1777H185.352C183.764 52.1777 182.97 52.8828 182.97 54.2814V73.9437C182.97 75.354 183.764 76.0474 185.352 76.0474H186.975C188.564 76.0474 189.358 75.3422 189.358 73.9437V69.5364H204.982V76.1532C204.982 84.0862 200.311 88.0469 190.969 88.0469H180.775C171.433 88.0469 166.762 84.0862 166.762 76.1532V52.0837C166.762 44.1506 171.433 40.1899 180.775 40.1899H190.969C200.311 40.1899 204.982 44.1506 204.982 52.0837V58.7004V58.6887Z" fill="white"/>
<path d="M247.953 58.6887H232.329V54.2814C232.329 52.8711 231.535 52.1777 229.947 52.1777H228.324C226.736 52.1777 225.942 52.8828 225.942 54.2814V73.9437C225.942 75.354 226.736 76.0474 228.324 76.0474H229.947C231.535 76.0474 232.329 75.3422 232.329 73.9437V69.5364H247.953V76.1532C247.953 84.0862 243.282 88.0469 233.94 88.0469H223.746C214.405 88.0469 209.734 84.0862 209.734 76.1532V52.0837C209.734 44.1506 214.405 40.1899 223.746 40.1899H233.94C243.282 40.1899 247.953 44.1506 247.953 52.0837V58.7004V58.6887Z" fill="white"/>
<path d="M266.731 40.1778H278.361C287.703 40.1778 292.374 44.1384 292.374 52.0715V68.3725H268.074V74.7072C268.074 76.1175 268.868 76.8109 270.456 76.8109H274.648C276.236 76.8109 277.03 76.047 277.03 74.5074V71.816H292.374V76.1292C292.374 84.0623 287.703 88.023 278.361 88.023H266.731C257.389 88.023 252.718 84.0623 252.718 76.1292V52.0597C252.718 44.1267 257.389 40.166 266.731 40.166V40.1778ZM268.062 59.5579H277.018V53.5171C277.018 52.1067 276.224 51.4133 274.636 51.4133H270.444C268.856 51.4133 268.062 52.1185 268.062 53.5171V59.5579Z" fill="white"/>
<path d="M314.747 88.0354H298.552V23.8774H314.747V88.0354Z" fill="white"/>
<path d="M322.093 35.3951V23.8774H338.86V35.3833H322.093V35.3951ZM338.568 88.0354H322.373V40.1784H338.568V88.0354Z" fill="white"/>
<path d="M373.158 63.2958L384.975 88.0352H368.58L363.43 73.8379L358.76 88.0352H342.937L353.797 63.5778L342.365 40.1782H359.32L363.419 53.5058L367.517 40.1782H383.62L373.134 63.2958H373.158Z" fill="white"/>
<path d="M98.4068 44.2391L31.1923 64.8012L48.4847 30.7084L61.5079 45.6339L48.4703 3.22998L0 97.9737L98.4068 44.2391Z" fill="white"/>
<path d="M82.7676 69.9774C76.4573 81.2505 65.7628 81.1643 65.7628 81.1643C65.7628 81.1643 74.1861 83.9251 80.8558 79.0506C76.7879 88.6126 64.4691 95.1983 48.6142 92.6819C48.5998 92.6819 48.5998 92.6819 48.5998 92.6819C36.4678 90.4819 25.7158 91.7041 15.165 95.9747C42.1888 81.2362 71.5269 65.1891 98.4069 50.5225C90.7454 56.1159 86.7349 62.8741 82.7676 69.9774Z" fill="white"/>
</svg>
