<svg width="374" height="100" viewBox="0 0 374 100" fill="none" xmlns="http://www.w3.org/2000/svg">
<path d="M53.3848 71.6009L81.0593 39.0078L60.5277 53.4952L53.3848 71.6009Z" fill="#F1F1F1"/>
<path d="M75.388 56.8086L65.7108 64.6062L67.5774 65.8578L48.8836 85.8194L43.2554 99.9976L77.0319 66.3758L72.1503 62.1101L75.388 56.8086Z" fill="#F1F1F1"/>
<path d="M29.0844 71.6009L1.40991 39.0078L21.9415 53.4952L29.0844 71.6009Z" fill="#F1F1F1"/>
<path d="M7.07389 56.8086L16.7582 64.6062L14.8917 65.8578L33.5854 85.8194L39.2065 99.9976L5.42993 66.3758L10.3187 62.1101L7.07389 56.8086Z" fill="#F1F1F1"/>
<path d="M51.2097 42.5847L47.0747 37.3767L51.4179 33.5499L46.9168 30.6293L45.3949 12.7035L48.3023 9.58157L41.2383 0L34.1743 9.58157L37.0817 12.7035L35.5311 30.6293L31.0587 33.5499L35.4019 37.3767L31.2669 42.5847L18.1726 33.1111L41.2383 97.7722L64.304 33.1111L51.2097 42.5847ZM40.2548 78.1271L30.1039 49.6702L40.2548 57.4894V78.1271Z" fill="#F1F1F1"/>
<path d="M347.368 75.716L344.394 71.0369L339.098 75.716H321.397L338.01 61.1344L328.905 46.8066H346.534L349.327 51.1231L354.26 46.8066H371.961L355.711 61.1344L365.106 75.716H347.368Z" fill="#F1F1F1"/>
<path d="M312.22 44.122L315.63 37.3027H333.258L329.848 44.122H312.22ZM296.369 75.7156L310.841 46.7699H328.506L314.033 75.7156H296.369Z" fill="#F1F1F1"/>
<path d="M272.973 75.7146L293.902 33.9646L292.234 30.7363H295.498L307.287 42.525L290.674 75.7146H272.973Z" fill="#F1F1F1"/>
<path d="M249.504 62.1863L245.478 70.0938H252.189L255.163 64.3264H272.828L268.693 72.524L265.501 75.716H228.212L226.616 72.524L237.861 49.9986L241.053 46.8066H278.341L279.937 49.9986L273.988 62.2226H256.287V62.1863H249.504ZM259.08 56.6003L261.075 52.4289H254.292L252.261 56.6003H259.08Z" fill="#F1F1F1"/>
<path d="M197.67 70.094H204.417L208.879 61.2072H226.58L220.921 72.4518L217.729 75.7163H180.441L178.809 72.4518L190.053 49.9989L193.318 46.7344H230.606L232.202 49.9989L228.176 58.0152H210.475L213.304 52.3567H206.521L197.67 70.094Z" fill="#F1F1F1"/>
<path d="M149.936 70.094H156.682L161.144 61.2072H178.845L173.187 72.4518L169.995 75.7163H132.706L131.074 72.4518L142.318 49.9989L145.583 46.7344H182.871L184.467 49.9989L180.441 58.0152H162.74L165.569 52.3567H158.786L149.936 70.094Z" fill="#F1F1F1"/>
<path d="M141.557 33.9648L143.153 37.1206L123.856 75.7148H106.154L115.331 57.3971H108.585L99.444 75.7148L101.04 78.9431H97.848L86.0593 67.1544L101.04 37.1206L99.444 33.9648H141.557ZM118.197 51.7022L124.218 39.6597H117.435L111.487 51.7022H118.197Z" fill="#F1F1F1"/>
</svg>
